<svg xmlns="http://www.w3.org/2000/svg" width="50" height="28" viewBox="0 0 50 28">
    <path fill="#FFF" fill-rule="evenodd" d="M19.823 8.221l-5.084 12.601h-3.332l-2.52-10.036c-.17-.62-.299-.84-.769-1.106C7.35 9.238 6.111 8.84 5 8.62l.085-.354h5.34c.683 0 1.281.487 1.452 1.283l1.325 7.295 3.289-8.578h3.332v-.044zM30.502 8c1.196 0 2.178.31 2.947.575l-.555 2.653c-1.41-.664-2.649-.62-3.119-.575-.897.133-1.324.619-1.324 1.061-.042 1.503 4.4 1.68 4.4 4.996 0 2.609-2.178 4.333-5.468 4.29-1.41 0-2.776-.31-3.502-.664l.555-2.741c.726.353 1.666.84 3.246.795.897 0 1.88-.397 1.88-1.238 0-.53-.385-.928-1.623-1.547-1.196-.62-2.777-1.636-2.777-3.449C25.205 9.724 27.383 8 30.502 8zm10.935.221L44 20.822h-2.905l-.427-1.9H36.61l-.64 1.9h-3.29L37.422 9.15c.213-.575.726-.929 1.324-.929h2.691zm-2.221 3.405l-1.666 4.73h2.606l-.94-4.73zM24.308 8.22l-2.606 12.601h-3.16l2.605-12.6h3.16z"/>
</svg>
