<svg xmlns="http://www.w3.org/2000/svg" width="39" height="13" viewBox="0 0 39 13">
    <path fill="#FFF" fill-rule="evenodd" d="M14.823.221L9.739 12.822H6.407L3.887 2.786c-.17-.62-.299-.84-.769-1.106C2.35 1.238 1.111.84 0 .62L.085.265h5.34c.683 0 1.281.487 1.452 1.283l1.325 7.295L11.49.265h3.332V.221zM25.502 0c1.196 0 2.178.31 2.947.575l-.555 2.653c-1.41-.664-2.649-.62-3.119-.575-.897.133-1.324.619-1.324 1.061-.042 1.503 4.4 1.68 4.4 4.996 0 2.609-2.178 4.333-5.468 4.29-1.41 0-2.776-.31-3.502-.664l.555-2.741c.726.353 1.666.84 3.246.795.897 0 1.88-.397 1.88-1.238 0-.53-.385-.928-1.623-1.547-1.196-.62-2.777-1.636-2.777-3.449C20.205 1.724 22.383 0 25.502 0zm10.935.221L39 12.822h-2.905l-.427-1.9H31.61l-.64 1.9h-3.29L32.422 1.15c.213-.575.726-.929 1.324-.929h2.691zm-2.221 3.405l-1.666 4.73h2.606l-.94-4.73zM19.308.22l-2.606 12.601h-3.16l2.605-12.6h3.16z"/>
</svg>
