<svg xmlns="http://www.w3.org/2000/svg" width="22" height="22" viewBox="0 0 22 22">
    <path fill="#EE2527" d="M9.951 4c.615-.014 1.15.386 1.322.954l.034.141h6.58c.671.001 1.231.482 1.354 1.119l.02.129.006.133v6.994c-.01 1.107-.875 2.008-1.961 2.078l-.15.004-.407-.001v.61c-.01 1.09-.851 1.984-1.926 2.08l-.155.009H4.101c-1.088-.001-1.986-.826-2.09-1.889L2 16.208 2 7.108c0-.12.049-.237.134-.322.057-.057.128-.097.207-.117l.081-.014 2.23-.003V4.453c0-.12.05-.235.134-.32.064-.064.145-.107.232-.124L5.107 4H9.95zM4.652 7.533H2.88v8.653c0 .555.387 1.022.906 1.15l.122.022.127.011h10.61c.609 0 1.116-.442 1.209-1.021l.013-.126v-.671l-9.132.001c-1.1-.001-2-.854-2.077-1.934l-.005-.149-.001-5.936zm13.707 2.231h-12.8v3.705c.001.606.46 1.105 1.049 1.169l.128.007h10.42c.61-.002 1.116-.457 1.194-1.047l.01-.129-.001-3.705zM9.96 4.906H5.559v3.952h12.8v-2.38c-.002-.233-.17-.425-.388-.467l-.085-.009h-7.005c-.12 0-.236-.047-.32-.133-.064-.064-.107-.144-.124-.231l-.009-.09v-.173c.006-.126-.041-.248-.13-.338-.072-.07-.165-.116-.263-.128l-.075-.003z"/>
</svg>
