<svg xmlns="http://www.w3.org/2000/svg" width="22" height="22" viewBox="0 0 22 22">
    <path fill="#EE2527" d="M17.5 5c.78 0 1.42.595 1.493 1.356L19 6.5v7c0 .78-.595 1.42-1.356 1.493L17.5 15H16v1.5c0 .78-.595 1.42-1.356 1.493L14.5 18h-11c-.78 0-1.42-.595-1.493-1.356L2 16.5v-7c0-.78.595-1.42 1.356-1.493L3.5 8H5V6.5c0-.78.595-1.42 1.356-1.493L6.5 5h11zM5 9H3.5c-.245 0-.45.177-.492.41L3 9.5v7c0 .245.177.45.41.492L3.5 17h11c.245 0 .45-.177.492-.41L15 16.5V15H6.5c-.78 0-1.42-.595-1.493-1.356L5 13.5V9zm13 2.5H6v2c0 .245.177.45.41.492L6.5 14h11c.245 0 .45-.177.492-.41L18 13.5v-2zM17.5 6h-11c-.245 0-.45.177-.492.41L6 6.5v4h12v-4c0-.245-.177-.45-.41-.492L17.5 6z"/>
</svg>
